<mxfile host="Electron" agent="Mozilla/5.0 (Macintosh; Intel Mac OS X 10_15_7) AppleWebKit/537.36 (KHTML, like Gecko) draw.io/26.0.9 Chrome/128.0.6613.186 Electron/32.2.5 Safari/537.36" version="26.0.9">
  <diagram name="Page-1" id="Hgv7c2otO7vIIP03TptY">
    <mxGraphModel dx="2935" dy="2648" grid="1" gridSize="10" guides="1" tooltips="1" connect="1" arrows="1" fold="1" page="1" pageScale="1" pageWidth="1169" pageHeight="827" math="0" shadow="0">
      <root>
        <mxCell id="0" />
        <mxCell id="1" parent="0" />
        <mxCell id="IPP-kp5qL_V_h9k9Lo6L-34" value="" style="group" vertex="1" connectable="0" parent="1">
          <mxGeometry x="2300" y="490" width="160" height="140" as="geometry" />
        </mxCell>
        <mxCell id="IPP-kp5qL_V_h9k9Lo6L-8" value="" style="rounded=1;whiteSpace=wrap;html=1;fillColor=#97D077;" vertex="1" parent="IPP-kp5qL_V_h9k9Lo6L-34">
          <mxGeometry width="160" height="140" as="geometry" />
        </mxCell>
        <mxCell id="IPP-kp5qL_V_h9k9Lo6L-9" value="Система ставок менеджмента HCB" style="rounded=1;whiteSpace=wrap;html=1;" vertex="1" parent="IPP-kp5qL_V_h9k9Lo6L-34">
          <mxGeometry x="20" y="36" width="120" height="96" as="geometry" />
        </mxCell>
        <mxCell id="IPP-kp5qL_V_h9k9Lo6L-10" value="Сервис" style="text;html=1;align=center;verticalAlign=middle;whiteSpace=wrap;rounded=0;" vertex="1" parent="IPP-kp5qL_V_h9k9Lo6L-34">
          <mxGeometry x="50" width="60" height="30" as="geometry" />
        </mxCell>
        <mxCell id="IPP-kp5qL_V_h9k9Lo6L-35" value="" style="group" vertex="1" connectable="0" parent="1">
          <mxGeometry x="2200" y="230" width="160" height="140" as="geometry" />
        </mxCell>
        <mxCell id="IPP-kp5qL_V_h9k9Lo6L-5" value="" style="rounded=1;whiteSpace=wrap;html=1;fillColor=#97D077;" vertex="1" parent="IPP-kp5qL_V_h9k9Lo6L-35">
          <mxGeometry width="160" height="140" as="geometry" />
        </mxCell>
        <mxCell id="IPP-kp5qL_V_h9k9Lo6L-6" value="расчет и списание средств у клиентов и сотриудников" style="rounded=1;whiteSpace=wrap;html=1;" vertex="1" parent="IPP-kp5qL_V_h9k9Lo6L-35">
          <mxGeometry x="20" y="36" width="120" height="96" as="geometry" />
        </mxCell>
        <mxCell id="IPP-kp5qL_V_h9k9Lo6L-7" value="Сервис" style="text;html=1;align=center;verticalAlign=middle;whiteSpace=wrap;rounded=0;" vertex="1" parent="IPP-kp5qL_V_h9k9Lo6L-35">
          <mxGeometry x="50" width="60" height="30" as="geometry" />
        </mxCell>
        <mxCell id="IPP-kp5qL_V_h9k9Lo6L-36" value="" style="group" vertex="1" connectable="0" parent="1">
          <mxGeometry x="2140" y="810" width="160" height="140" as="geometry" />
        </mxCell>
        <mxCell id="IPP-kp5qL_V_h9k9Lo6L-11" value="" style="rounded=1;whiteSpace=wrap;html=1;fillColor=#97D077;" vertex="1" parent="IPP-kp5qL_V_h9k9Lo6L-36">
          <mxGeometry width="160" height="140" as="geometry" />
        </mxCell>
        <mxCell id="IPP-kp5qL_V_h9k9Lo6L-12" value="Энтити-сервис воркеров" style="rounded=1;whiteSpace=wrap;html=1;" vertex="1" parent="IPP-kp5qL_V_h9k9Lo6L-36">
          <mxGeometry x="20" y="36" width="120" height="96" as="geometry" />
        </mxCell>
        <mxCell id="IPP-kp5qL_V_h9k9Lo6L-13" value="Сервис" style="text;html=1;align=center;verticalAlign=middle;whiteSpace=wrap;rounded=0;" vertex="1" parent="IPP-kp5qL_V_h9k9Lo6L-36">
          <mxGeometry x="50" width="60" height="30" as="geometry" />
        </mxCell>
        <mxCell id="IPP-kp5qL_V_h9k9Lo6L-37" value="" style="group" vertex="1" connectable="0" parent="1">
          <mxGeometry x="1590" y="840" width="160" height="140" as="geometry" />
        </mxCell>
        <mxCell id="IPP-kp5qL_V_h9k9Lo6L-14" value="" style="rounded=1;whiteSpace=wrap;html=1;fillColor=#97D077;" vertex="1" parent="IPP-kp5qL_V_h9k9Lo6L-37">
          <mxGeometry width="160" height="140" as="geometry" />
        </mxCell>
        <mxCell id="IPP-kp5qL_V_h9k9Lo6L-15" value="Сборка необходимых расходников для заказа" style="rounded=1;whiteSpace=wrap;html=1;" vertex="1" parent="IPP-kp5qL_V_h9k9Lo6L-37">
          <mxGeometry x="20" y="36" width="120" height="96" as="geometry" />
        </mxCell>
        <mxCell id="IPP-kp5qL_V_h9k9Lo6L-16" value="Сервис" style="text;html=1;align=center;verticalAlign=middle;whiteSpace=wrap;rounded=0;" vertex="1" parent="IPP-kp5qL_V_h9k9Lo6L-37">
          <mxGeometry x="50" width="60" height="30" as="geometry" />
        </mxCell>
        <mxCell id="IPP-kp5qL_V_h9k9Lo6L-38" value="" style="group" vertex="1" connectable="0" parent="1">
          <mxGeometry x="1860" y="910" width="160" height="140" as="geometry" />
        </mxCell>
        <mxCell id="IPP-kp5qL_V_h9k9Lo6L-31" value="" style="rounded=1;whiteSpace=wrap;html=1;fillColor=#CCCCCC;" vertex="1" parent="IPP-kp5qL_V_h9k9Lo6L-38">
          <mxGeometry width="160" height="140" as="geometry" />
        </mxCell>
        <mxCell id="IPP-kp5qL_V_h9k9Lo6L-32" value="производство fur tune печенья" style="rounded=1;whiteSpace=wrap;html=1;" vertex="1" parent="IPP-kp5qL_V_h9k9Lo6L-38">
          <mxGeometry x="20" y="36" width="120" height="96" as="geometry" />
        </mxCell>
        <mxCell id="IPP-kp5qL_V_h9k9Lo6L-33" value="Внешняя система" style="text;html=1;align=center;verticalAlign=middle;whiteSpace=wrap;rounded=0;" vertex="1" parent="IPP-kp5qL_V_h9k9Lo6L-38">
          <mxGeometry x="50" width="60" height="30" as="geometry" />
        </mxCell>
        <mxCell id="IPP-kp5qL_V_h9k9Lo6L-39" value="" style="group" vertex="1" connectable="0" parent="1">
          <mxGeometry x="1240" y="310" width="160" height="140" as="geometry" />
        </mxCell>
        <mxCell id="IPP-kp5qL_V_h9k9Lo6L-28" value="" style="rounded=1;whiteSpace=wrap;html=1;fillColor=#CCCCCC;" vertex="1" parent="IPP-kp5qL_V_h9k9Lo6L-39">
          <mxGeometry width="160" height="140" as="geometry" />
        </mxCell>
        <mxCell id="IPP-kp5qL_V_h9k9Lo6L-29" value="HCB" style="rounded=1;whiteSpace=wrap;html=1;" vertex="1" parent="IPP-kp5qL_V_h9k9Lo6L-39">
          <mxGeometry x="20" y="36" width="120" height="96" as="geometry" />
        </mxCell>
        <mxCell id="IPP-kp5qL_V_h9k9Lo6L-30" value="Внешняя система" style="text;html=1;align=center;verticalAlign=middle;whiteSpace=wrap;rounded=0;" vertex="1" parent="IPP-kp5qL_V_h9k9Lo6L-39">
          <mxGeometry x="50" width="60" height="30" as="geometry" />
        </mxCell>
        <mxCell id="IPP-kp5qL_V_h9k9Lo6L-40" value="" style="group" vertex="1" connectable="0" parent="1">
          <mxGeometry x="1240" y="600" width="160" height="140" as="geometry" />
        </mxCell>
        <mxCell id="IPP-kp5qL_V_h9k9Lo6L-17" value="" style="rounded=1;whiteSpace=wrap;html=1;fillColor=#97D077;" vertex="1" parent="IPP-kp5qL_V_h9k9Lo6L-40">
          <mxGeometry width="160" height="140" as="geometry" />
        </mxCell>
        <mxCell id="IPP-kp5qL_V_h9k9Lo6L-18" value="Скоринг работников" style="rounded=1;whiteSpace=wrap;html=1;" vertex="1" parent="IPP-kp5qL_V_h9k9Lo6L-40">
          <mxGeometry x="20" y="36" width="120" height="96" as="geometry" />
        </mxCell>
        <mxCell id="IPP-kp5qL_V_h9k9Lo6L-19" value="Сервис" style="text;html=1;align=center;verticalAlign=middle;whiteSpace=wrap;rounded=0;" vertex="1" parent="IPP-kp5qL_V_h9k9Lo6L-40">
          <mxGeometry x="50" width="60" height="30" as="geometry" />
        </mxCell>
        <mxCell id="IPP-kp5qL_V_h9k9Lo6L-41" value="" style="group" vertex="1" connectable="0" parent="1">
          <mxGeometry x="1630" y="360" width="440" height="340" as="geometry" />
        </mxCell>
        <mxCell id="IPP-kp5qL_V_h9k9Lo6L-20" value="" style="rounded=1;whiteSpace=wrap;html=1;fillColor=#97D077;" vertex="1" parent="IPP-kp5qL_V_h9k9Lo6L-41">
          <mxGeometry width="440" height="340" as="geometry" />
        </mxCell>
        <mxCell id="IPP-kp5qL_V_h9k9Lo6L-21" value="Матчинг" style="rounded=1;whiteSpace=wrap;html=1;" vertex="1" parent="IPP-kp5qL_V_h9k9Lo6L-41">
          <mxGeometry x="60" y="60" width="120" height="96" as="geometry" />
        </mxCell>
        <mxCell id="IPP-kp5qL_V_h9k9Lo6L-22" value="Сервис" style="text;html=1;align=center;verticalAlign=middle;whiteSpace=wrap;rounded=0;" vertex="1" parent="IPP-kp5qL_V_h9k9Lo6L-41">
          <mxGeometry x="190" width="60" height="30" as="geometry" />
        </mxCell>
        <mxCell id="IPP-kp5qL_V_h9k9Lo6L-23" value="Планирование визитов" style="rounded=1;whiteSpace=wrap;html=1;" vertex="1" parent="IPP-kp5qL_V_h9k9Lo6L-41">
          <mxGeometry x="60" y="192" width="120" height="96" as="geometry" />
        </mxCell>
        <mxCell id="IPP-kp5qL_V_h9k9Lo6L-24" value="Контроль качества работы сотрудников" style="rounded=1;whiteSpace=wrap;html=1;" vertex="1" parent="IPP-kp5qL_V_h9k9Lo6L-41">
          <mxGeometry x="250" y="192" width="120" height="96" as="geometry" />
        </mxCell>
        <mxCell id="IPP-kp5qL_V_h9k9Lo6L-43" style="edgeStyle=orthogonalEdgeStyle;rounded=0;orthogonalLoop=1;jettySize=auto;html=1;entryX=0;entryY=0.25;entryDx=0;entryDy=0;curved=1;strokeWidth=2;" edge="1" parent="1" source="IPP-kp5qL_V_h9k9Lo6L-29" target="IPP-kp5qL_V_h9k9Lo6L-23">
          <mxGeometry relative="1" as="geometry" />
        </mxCell>
        <mxCell id="IPP-kp5qL_V_h9k9Lo6L-44" value="&lt;font style=&quot;font-size: 14px;&quot;&gt;sync&lt;/font&gt;" style="edgeLabel;html=1;align=center;verticalAlign=middle;resizable=0;points=[];" vertex="1" connectable="0" parent="IPP-kp5qL_V_h9k9Lo6L-43">
          <mxGeometry x="0.0251" y="2" relative="1" as="geometry">
            <mxPoint as="offset" />
          </mxGeometry>
        </mxCell>
        <mxCell id="IPP-kp5qL_V_h9k9Lo6L-45" style="edgeStyle=orthogonalEdgeStyle;rounded=0;orthogonalLoop=1;jettySize=auto;html=1;entryX=0;entryY=0.75;entryDx=0;entryDy=0;curved=1;strokeWidth=2;" edge="1" parent="1" source="IPP-kp5qL_V_h9k9Lo6L-18" target="IPP-kp5qL_V_h9k9Lo6L-23">
          <mxGeometry relative="1" as="geometry" />
        </mxCell>
        <mxCell id="IPP-kp5qL_V_h9k9Lo6L-46" value="&lt;font style=&quot;font-size: 14px;&quot;&gt;async&lt;/font&gt;" style="edgeLabel;html=1;align=center;verticalAlign=middle;resizable=0;points=[];" vertex="1" connectable="0" parent="IPP-kp5qL_V_h9k9Lo6L-45">
          <mxGeometry x="-0.3063" y="10" relative="1" as="geometry">
            <mxPoint as="offset" />
          </mxGeometry>
        </mxCell>
        <mxCell id="IPP-kp5qL_V_h9k9Lo6L-47" style="edgeStyle=orthogonalEdgeStyle;rounded=0;orthogonalLoop=1;jettySize=auto;html=1;entryX=0.25;entryY=1;entryDx=0;entryDy=0;strokeWidth=2;curved=1;" edge="1" parent="1" source="IPP-kp5qL_V_h9k9Lo6L-14" target="IPP-kp5qL_V_h9k9Lo6L-23">
          <mxGeometry relative="1" as="geometry" />
        </mxCell>
        <mxCell id="IPP-kp5qL_V_h9k9Lo6L-48" value="&lt;font style=&quot;font-size: 14px;&quot;&gt;async&lt;/font&gt;" style="edgeLabel;html=1;align=center;verticalAlign=middle;resizable=0;points=[];" vertex="1" connectable="0" parent="IPP-kp5qL_V_h9k9Lo6L-47">
          <mxGeometry x="0.1515" relative="1" as="geometry">
            <mxPoint x="-14" y="-4" as="offset" />
          </mxGeometry>
        </mxCell>
        <mxCell id="IPP-kp5qL_V_h9k9Lo6L-49" style="edgeStyle=orthogonalEdgeStyle;rounded=0;orthogonalLoop=1;jettySize=auto;html=1;exitX=0;exitY=0.25;exitDx=0;exitDy=0;entryX=1;entryY=0;entryDx=0;entryDy=0;curved=1;strokeWidth=2;" edge="1" parent="1" source="IPP-kp5qL_V_h9k9Lo6L-12" target="IPP-kp5qL_V_h9k9Lo6L-15">
          <mxGeometry relative="1" as="geometry" />
        </mxCell>
        <mxCell id="IPP-kp5qL_V_h9k9Lo6L-50" value="&lt;font style=&quot;font-size: 13px;&quot;&gt;read only, sync&lt;/font&gt;" style="edgeLabel;html=1;align=center;verticalAlign=middle;resizable=0;points=[];" vertex="1" connectable="0" parent="IPP-kp5qL_V_h9k9Lo6L-49">
          <mxGeometry x="0.102" y="-3" relative="1" as="geometry">
            <mxPoint x="-1" as="offset" />
          </mxGeometry>
        </mxCell>
        <mxCell id="IPP-kp5qL_V_h9k9Lo6L-51" style="edgeStyle=orthogonalEdgeStyle;rounded=0;orthogonalLoop=1;jettySize=auto;html=1;entryX=0;entryY=0.5;entryDx=0;entryDy=0;curved=1;strokeWidth=2;" edge="1" parent="1" source="IPP-kp5qL_V_h9k9Lo6L-15" target="IPP-kp5qL_V_h9k9Lo6L-32">
          <mxGeometry relative="1" as="geometry" />
        </mxCell>
        <mxCell id="IPP-kp5qL_V_h9k9Lo6L-52" value="&lt;font style=&quot;font-size: 14px;&quot;&gt;sync&lt;/font&gt;" style="edgeLabel;html=1;align=center;verticalAlign=middle;resizable=0;points=[];" vertex="1" connectable="0" parent="IPP-kp5qL_V_h9k9Lo6L-51">
          <mxGeometry x="-0.1318" y="-7" relative="1" as="geometry">
            <mxPoint as="offset" />
          </mxGeometry>
        </mxCell>
        <mxCell id="IPP-kp5qL_V_h9k9Lo6L-53" style="edgeStyle=orthogonalEdgeStyle;rounded=0;orthogonalLoop=1;jettySize=auto;html=1;exitX=0;exitY=0;exitDx=0;exitDy=0;curved=1;strokeWidth=2;" edge="1" parent="1" source="IPP-kp5qL_V_h9k9Lo6L-12" target="IPP-kp5qL_V_h9k9Lo6L-24">
          <mxGeometry relative="1" as="geometry" />
        </mxCell>
        <mxCell id="IPP-kp5qL_V_h9k9Lo6L-54" value="&lt;font style=&quot;font-size: 14px;&quot;&gt;read only, sync&lt;/font&gt;" style="edgeLabel;html=1;align=center;verticalAlign=middle;resizable=0;points=[];" vertex="1" connectable="0" parent="IPP-kp5qL_V_h9k9Lo6L-53">
          <mxGeometry x="-0.0957" y="3" relative="1" as="geometry">
            <mxPoint x="-1" as="offset" />
          </mxGeometry>
        </mxCell>
        <mxCell id="IPP-kp5qL_V_h9k9Lo6L-55" style="edgeStyle=orthogonalEdgeStyle;rounded=0;orthogonalLoop=1;jettySize=auto;html=1;exitX=0.5;exitY=0;exitDx=0;exitDy=0;strokeWidth=2;curved=1;" edge="1" parent="1" source="IPP-kp5qL_V_h9k9Lo6L-12" target="IPP-kp5qL_V_h9k9Lo6L-9">
          <mxGeometry relative="1" as="geometry" />
        </mxCell>
        <mxCell id="IPP-kp5qL_V_h9k9Lo6L-56" value="&lt;font style=&quot;font-size: 14px;&quot;&gt;sync&lt;/font&gt;" style="edgeLabel;html=1;align=center;verticalAlign=middle;resizable=0;points=[];" vertex="1" connectable="0" parent="IPP-kp5qL_V_h9k9Lo6L-55">
          <mxGeometry x="-0.0694" y="-1" relative="1" as="geometry">
            <mxPoint y="-1" as="offset" />
          </mxGeometry>
        </mxCell>
        <mxCell id="IPP-kp5qL_V_h9k9Lo6L-59" style="edgeStyle=orthogonalEdgeStyle;rounded=0;orthogonalLoop=1;jettySize=auto;html=1;exitX=1;exitY=0.5;exitDx=0;exitDy=0;entryX=1;entryY=0.5;entryDx=0;entryDy=0;strokeWidth=2;curved=1;" edge="1" parent="1" source="IPP-kp5qL_V_h9k9Lo6L-12" target="IPP-kp5qL_V_h9k9Lo6L-6">
          <mxGeometry relative="1" as="geometry">
            <Array as="points">
              <mxPoint x="2590" y="894" />
              <mxPoint x="2590" y="314" />
            </Array>
          </mxGeometry>
        </mxCell>
        <mxCell id="IPP-kp5qL_V_h9k9Lo6L-62" value="&lt;font style=&quot;font-size: 14px;&quot;&gt;read only, sync&lt;/font&gt;" style="edgeLabel;html=1;align=center;verticalAlign=middle;resizable=0;points=[];" vertex="1" connectable="0" parent="1">
          <mxGeometry x="2599.9966666666664" y="570" as="geometry" />
        </mxCell>
        <mxCell id="IPP-kp5qL_V_h9k9Lo6L-63" style="edgeStyle=orthogonalEdgeStyle;rounded=0;orthogonalLoop=1;jettySize=auto;html=1;exitX=1;exitY=0.5;exitDx=0;exitDy=0;entryX=0;entryY=0.5;entryDx=0;entryDy=0;strokeWidth=2;curved=1;" edge="1" parent="1" source="IPP-kp5qL_V_h9k9Lo6L-24" target="IPP-kp5qL_V_h9k9Lo6L-9">
          <mxGeometry relative="1" as="geometry" />
        </mxCell>
        <mxCell id="IPP-kp5qL_V_h9k9Lo6L-64" value="&lt;font style=&quot;font-size: 14px;&quot;&gt;async&lt;/font&gt;" style="edgeLabel;html=1;align=center;verticalAlign=middle;resizable=0;points=[];" vertex="1" connectable="0" parent="1">
          <mxGeometry x="1710" y="750.0000000000002" as="geometry">
            <mxPoint x="440" y="-169" as="offset" />
          </mxGeometry>
        </mxCell>
        <mxCell id="IPP-kp5qL_V_h9k9Lo6L-65" style="edgeStyle=orthogonalEdgeStyle;rounded=0;orthogonalLoop=1;jettySize=auto;html=1;exitX=1;exitY=0.5;exitDx=0;exitDy=0;entryX=0;entryY=0.5;entryDx=0;entryDy=0;curved=1;strokeWidth=2;" edge="1" parent="1" source="IPP-kp5qL_V_h9k9Lo6L-24" target="IPP-kp5qL_V_h9k9Lo6L-5">
          <mxGeometry relative="1" as="geometry" />
        </mxCell>
        <mxCell id="IPP-kp5qL_V_h9k9Lo6L-66" value="&lt;font style=&quot;font-size: 14px;&quot;&gt;async&lt;/font&gt;" style="edgeLabel;html=1;align=center;verticalAlign=middle;resizable=0;points=[];" vertex="1" connectable="0" parent="1">
          <mxGeometry x="2100" y="390.0000000000002" as="geometry" />
        </mxCell>
        <mxCell id="IPP-kp5qL_V_h9k9Lo6L-67" style="edgeStyle=orthogonalEdgeStyle;rounded=0;orthogonalLoop=1;jettySize=auto;html=1;entryX=0.5;entryY=1;entryDx=0;entryDy=0;curved=1;strokeWidth=2;" edge="1" parent="1" source="IPP-kp5qL_V_h9k9Lo6L-11" target="IPP-kp5qL_V_h9k9Lo6L-18">
          <mxGeometry relative="1" as="geometry">
            <Array as="points">
              <mxPoint x="2220" y="1110" />
              <mxPoint x="1320" y="1110" />
            </Array>
          </mxGeometry>
        </mxCell>
        <mxCell id="IPP-kp5qL_V_h9k9Lo6L-68" value="&lt;font style=&quot;font-size: 14px;&quot;&gt;sync&lt;/font&gt;" style="edgeLabel;html=1;align=center;verticalAlign=middle;resizable=0;points=[];" vertex="1" connectable="0" parent="1">
          <mxGeometry x="1784.0033333333336" y="1110.0000000000002" as="geometry" />
        </mxCell>
        <mxCell id="IPP-kp5qL_V_h9k9Lo6L-69" value="&lt;font style=&quot;font-size: 36px;&quot;&gt;НАЧАЛЬНОЕ СОСТОЯНИЕ&lt;/font&gt;" style="text;html=1;align=center;verticalAlign=middle;whiteSpace=wrap;rounded=0;" vertex="1" parent="1">
          <mxGeometry x="1694" y="110" width="366" height="30" as="geometry" />
        </mxCell>
        <mxCell id="IPP-kp5qL_V_h9k9Lo6L-72" value="&lt;font style=&quot;font-size: 18px;&quot;&gt;Изменения:&lt;/font&gt;&lt;div&gt;&lt;font style=&quot;font-size: 18px;&quot;&gt;1. Объединить энтити сервис воркеров и скоринг работников в один сервис&lt;/font&gt;&lt;/div&gt;&lt;div&gt;&lt;font style=&quot;font-size: 18px;&quot;&gt;2. Вынести сервис матчинга в отдельный сервис. Тут используем стратегию Strange Fig&lt;/font&gt;&lt;/div&gt;&lt;div&gt;&lt;font style=&quot;font-size: 18px;&quot;&gt;3. Расчет средств разделяем на два сервиса: Списание с клиентов и Начисления воркерам. Здесь можно применить паттерн CDC&lt;/font&gt;&lt;/div&gt;&lt;div&gt;&lt;font style=&quot;font-size: 18px;&quot;&gt;4.&amp;nbsp;&lt;/font&gt;&lt;/div&gt;" style="shape=note;whiteSpace=wrap;html=1;backgroundOutline=1;darkOpacity=0.05;" vertex="1" parent="1">
          <mxGeometry x="2870" y="420" width="550" height="390" as="geometry" />
        </mxCell>
        <mxCell id="IPP-kp5qL_V_h9k9Lo6L-73" value="instability = 0.83" style="text;html=1;align=center;verticalAlign=middle;whiteSpace=wrap;rounded=0;" vertex="1" parent="1">
          <mxGeometry x="2220" y="950" width="100" height="30" as="geometry" />
        </mxCell>
        <mxCell id="IPP-kp5qL_V_h9k9Lo6L-74" value="instability = 0" style="text;html=1;align=center;verticalAlign=middle;whiteSpace=wrap;rounded=0;" vertex="1" parent="1">
          <mxGeometry x="2390" y="630" width="100" height="30" as="geometry" />
        </mxCell>
        <mxCell id="IPP-kp5qL_V_h9k9Lo6L-75" value="instability = 0" style="text;html=1;align=center;verticalAlign=middle;whiteSpace=wrap;rounded=0;" vertex="1" parent="1">
          <mxGeometry x="2230" y="200" width="100" height="30" as="geometry" />
        </mxCell>
        <mxCell id="IPP-kp5qL_V_h9k9Lo6L-76" value="instability = 0.3" style="text;html=1;align=center;verticalAlign=middle;whiteSpace=wrap;rounded=0;" vertex="1" parent="1">
          <mxGeometry x="1790" y="330" width="100" height="30" as="geometry" />
        </mxCell>
        <mxCell id="IPP-kp5qL_V_h9k9Lo6L-77" value="instability = 0.5" style="text;html=1;align=center;verticalAlign=middle;whiteSpace=wrap;rounded=0;" vertex="1" parent="1">
          <mxGeometry x="1620" y="980" width="100" height="30" as="geometry" />
        </mxCell>
        <mxCell id="IPP-kp5qL_V_h9k9Lo6L-79" value="instability = 0.5" style="text;html=1;align=center;verticalAlign=middle;whiteSpace=wrap;rounded=0;" vertex="1" parent="1">
          <mxGeometry x="1330" y="735" width="100" height="30" as="geometry" />
        </mxCell>
        <mxCell id="IPP-kp5qL_V_h9k9Lo6L-80" value="" style="group" vertex="1" connectable="0" parent="1">
          <mxGeometry x="5020" y="740" width="160" height="140" as="geometry" />
        </mxCell>
        <mxCell id="IPP-kp5qL_V_h9k9Lo6L-81" value="" style="rounded=1;whiteSpace=wrap;html=1;fillColor=#97D077;" vertex="1" parent="IPP-kp5qL_V_h9k9Lo6L-80">
          <mxGeometry width="160" height="140" as="geometry" />
        </mxCell>
        <mxCell id="IPP-kp5qL_V_h9k9Lo6L-82" value="Система ставок менеджмента HCB" style="rounded=1;whiteSpace=wrap;html=1;" vertex="1" parent="IPP-kp5qL_V_h9k9Lo6L-80">
          <mxGeometry x="20" y="36" width="120" height="96" as="geometry" />
        </mxCell>
        <mxCell id="IPP-kp5qL_V_h9k9Lo6L-83" value="Сервис" style="text;html=1;align=center;verticalAlign=middle;whiteSpace=wrap;rounded=0;" vertex="1" parent="IPP-kp5qL_V_h9k9Lo6L-80">
          <mxGeometry x="50" width="60" height="30" as="geometry" />
        </mxCell>
        <mxCell id="IPP-kp5qL_V_h9k9Lo6L-84" value="" style="group" vertex="1" connectable="0" parent="1">
          <mxGeometry x="4880" y="110" width="160" height="140" as="geometry" />
        </mxCell>
        <mxCell id="IPP-kp5qL_V_h9k9Lo6L-85" value="" style="rounded=1;whiteSpace=wrap;html=1;fillColor=#97D077;" vertex="1" parent="IPP-kp5qL_V_h9k9Lo6L-84">
          <mxGeometry width="160" height="140" as="geometry" />
        </mxCell>
        <mxCell id="IPP-kp5qL_V_h9k9Lo6L-86" value="Списание с клиентов" style="rounded=1;whiteSpace=wrap;html=1;" vertex="1" parent="IPP-kp5qL_V_h9k9Lo6L-84">
          <mxGeometry x="20" y="36" width="120" height="96" as="geometry" />
        </mxCell>
        <mxCell id="IPP-kp5qL_V_h9k9Lo6L-87" value="Сервис" style="text;html=1;align=center;verticalAlign=middle;whiteSpace=wrap;rounded=0;" vertex="1" parent="IPP-kp5qL_V_h9k9Lo6L-84">
          <mxGeometry x="50" width="60" height="30" as="geometry" />
        </mxCell>
        <mxCell id="IPP-kp5qL_V_h9k9Lo6L-92" value="" style="group" vertex="1" connectable="0" parent="1">
          <mxGeometry x="4160" y="850" width="160" height="140" as="geometry" />
        </mxCell>
        <mxCell id="IPP-kp5qL_V_h9k9Lo6L-93" value="" style="rounded=1;whiteSpace=wrap;html=1;fillColor=#97D077;" vertex="1" parent="IPP-kp5qL_V_h9k9Lo6L-92">
          <mxGeometry width="160" height="140" as="geometry" />
        </mxCell>
        <mxCell id="IPP-kp5qL_V_h9k9Lo6L-94" value="Сборка необходимых расходников для заказа" style="rounded=1;whiteSpace=wrap;html=1;" vertex="1" parent="IPP-kp5qL_V_h9k9Lo6L-92">
          <mxGeometry x="20" y="36" width="120" height="96" as="geometry" />
        </mxCell>
        <mxCell id="IPP-kp5qL_V_h9k9Lo6L-95" value="Сервис" style="text;html=1;align=center;verticalAlign=middle;whiteSpace=wrap;rounded=0;" vertex="1" parent="IPP-kp5qL_V_h9k9Lo6L-92">
          <mxGeometry x="50" width="60" height="30" as="geometry" />
        </mxCell>
        <mxCell id="IPP-kp5qL_V_h9k9Lo6L-96" value="" style="group" vertex="1" connectable="0" parent="1">
          <mxGeometry x="4430" y="920" width="160" height="140" as="geometry" />
        </mxCell>
        <mxCell id="IPP-kp5qL_V_h9k9Lo6L-97" value="" style="rounded=1;whiteSpace=wrap;html=1;fillColor=#CCCCCC;" vertex="1" parent="IPP-kp5qL_V_h9k9Lo6L-96">
          <mxGeometry width="160" height="140" as="geometry" />
        </mxCell>
        <mxCell id="IPP-kp5qL_V_h9k9Lo6L-98" value="производство fur tune печенья" style="rounded=1;whiteSpace=wrap;html=1;" vertex="1" parent="IPP-kp5qL_V_h9k9Lo6L-96">
          <mxGeometry x="20" y="36" width="120" height="96" as="geometry" />
        </mxCell>
        <mxCell id="IPP-kp5qL_V_h9k9Lo6L-99" value="Внешняя система" style="text;html=1;align=center;verticalAlign=middle;whiteSpace=wrap;rounded=0;" vertex="1" parent="IPP-kp5qL_V_h9k9Lo6L-96">
          <mxGeometry x="50" width="60" height="30" as="geometry" />
        </mxCell>
        <mxCell id="IPP-kp5qL_V_h9k9Lo6L-100" value="" style="group" vertex="1" connectable="0" parent="1">
          <mxGeometry x="3810" y="320" width="160" height="140" as="geometry" />
        </mxCell>
        <mxCell id="IPP-kp5qL_V_h9k9Lo6L-101" value="" style="rounded=1;whiteSpace=wrap;html=1;fillColor=#CCCCCC;" vertex="1" parent="IPP-kp5qL_V_h9k9Lo6L-100">
          <mxGeometry width="160" height="140" as="geometry" />
        </mxCell>
        <mxCell id="IPP-kp5qL_V_h9k9Lo6L-102" value="HCB" style="rounded=1;whiteSpace=wrap;html=1;" vertex="1" parent="IPP-kp5qL_V_h9k9Lo6L-100">
          <mxGeometry x="20" y="36" width="120" height="96" as="geometry" />
        </mxCell>
        <mxCell id="IPP-kp5qL_V_h9k9Lo6L-103" value="Внешняя система" style="text;html=1;align=center;verticalAlign=middle;whiteSpace=wrap;rounded=0;" vertex="1" parent="IPP-kp5qL_V_h9k9Lo6L-100">
          <mxGeometry x="50" width="60" height="30" as="geometry" />
        </mxCell>
        <mxCell id="IPP-kp5qL_V_h9k9Lo6L-108" value="" style="group" vertex="1" connectable="0" parent="1">
          <mxGeometry x="4220" y="390" width="400" height="180" as="geometry" />
        </mxCell>
        <mxCell id="IPP-kp5qL_V_h9k9Lo6L-109" value="" style="rounded=1;whiteSpace=wrap;html=1;fillColor=#97D077;" vertex="1" parent="IPP-kp5qL_V_h9k9Lo6L-108">
          <mxGeometry width="400" height="180" as="geometry" />
        </mxCell>
        <mxCell id="IPP-kp5qL_V_h9k9Lo6L-111" value="Сервис" style="text;html=1;align=center;verticalAlign=middle;whiteSpace=wrap;rounded=0;" vertex="1" parent="IPP-kp5qL_V_h9k9Lo6L-108">
          <mxGeometry x="172.72727272727272" width="54.54545454545455" height="15.882352941176471" as="geometry" />
        </mxCell>
        <mxCell id="IPP-kp5qL_V_h9k9Lo6L-112" value="Планирование визитов" style="rounded=1;whiteSpace=wrap;html=1;" vertex="1" parent="IPP-kp5qL_V_h9k9Lo6L-108">
          <mxGeometry x="54.54545454545455" y="101.64705882352942" width="109.0909090909091" height="50.82352941176471" as="geometry" />
        </mxCell>
        <mxCell id="IPP-kp5qL_V_h9k9Lo6L-113" value="Контроль качества работы сотрудников" style="rounded=1;whiteSpace=wrap;html=1;" vertex="1" parent="IPP-kp5qL_V_h9k9Lo6L-108">
          <mxGeometry x="227.27272727272725" y="101.64705882352942" width="109.0909090909091" height="50.82352941176471" as="geometry" />
        </mxCell>
        <mxCell id="IPP-kp5qL_V_h9k9Lo6L-114" style="edgeStyle=orthogonalEdgeStyle;rounded=0;orthogonalLoop=1;jettySize=auto;html=1;entryX=0;entryY=0.25;entryDx=0;entryDy=0;curved=1;strokeWidth=2;" edge="1" parent="1" source="IPP-kp5qL_V_h9k9Lo6L-102" target="IPP-kp5qL_V_h9k9Lo6L-112">
          <mxGeometry relative="1" as="geometry" />
        </mxCell>
        <mxCell id="IPP-kp5qL_V_h9k9Lo6L-115" value="&lt;font style=&quot;font-size: 14px;&quot;&gt;sync&lt;/font&gt;" style="edgeLabel;html=1;align=center;verticalAlign=middle;resizable=0;points=[];" vertex="1" connectable="0" parent="IPP-kp5qL_V_h9k9Lo6L-114">
          <mxGeometry x="0.0251" y="2" relative="1" as="geometry">
            <mxPoint as="offset" />
          </mxGeometry>
        </mxCell>
        <mxCell id="IPP-kp5qL_V_h9k9Lo6L-118" style="edgeStyle=orthogonalEdgeStyle;rounded=0;orthogonalLoop=1;jettySize=auto;html=1;entryX=0.25;entryY=1;entryDx=0;entryDy=0;strokeWidth=2;curved=1;startArrow=classic;startFill=1;" edge="1" parent="1" source="IPP-kp5qL_V_h9k9Lo6L-93" target="IPP-kp5qL_V_h9k9Lo6L-112">
          <mxGeometry relative="1" as="geometry" />
        </mxCell>
        <mxCell id="IPP-kp5qL_V_h9k9Lo6L-119" value="&lt;font style=&quot;font-size: 14px;&quot;&gt;async&lt;/font&gt;" style="edgeLabel;html=1;align=center;verticalAlign=middle;resizable=0;points=[];" vertex="1" connectable="0" parent="IPP-kp5qL_V_h9k9Lo6L-118">
          <mxGeometry x="0.1515" relative="1" as="geometry">
            <mxPoint x="-14" y="-4" as="offset" />
          </mxGeometry>
        </mxCell>
        <mxCell id="IPP-kp5qL_V_h9k9Lo6L-122" style="edgeStyle=orthogonalEdgeStyle;rounded=0;orthogonalLoop=1;jettySize=auto;html=1;entryX=0;entryY=0.5;entryDx=0;entryDy=0;curved=1;strokeWidth=2;" edge="1" parent="1" source="IPP-kp5qL_V_h9k9Lo6L-94" target="IPP-kp5qL_V_h9k9Lo6L-98">
          <mxGeometry relative="1" as="geometry" />
        </mxCell>
        <mxCell id="IPP-kp5qL_V_h9k9Lo6L-123" value="&lt;font style=&quot;font-size: 14px;&quot;&gt;sync&lt;/font&gt;" style="edgeLabel;html=1;align=center;verticalAlign=middle;resizable=0;points=[];" vertex="1" connectable="0" parent="IPP-kp5qL_V_h9k9Lo6L-122">
          <mxGeometry x="-0.1318" y="-7" relative="1" as="geometry">
            <mxPoint as="offset" />
          </mxGeometry>
        </mxCell>
        <mxCell id="IPP-kp5qL_V_h9k9Lo6L-130" style="edgeStyle=orthogonalEdgeStyle;rounded=0;orthogonalLoop=1;jettySize=auto;html=1;exitX=1;exitY=0.5;exitDx=0;exitDy=0;entryX=0;entryY=0.5;entryDx=0;entryDy=0;strokeWidth=2;curved=1;" edge="1" parent="1" source="IPP-kp5qL_V_h9k9Lo6L-113" target="IPP-kp5qL_V_h9k9Lo6L-82">
          <mxGeometry relative="1" as="geometry" />
        </mxCell>
        <mxCell id="IPP-kp5qL_V_h9k9Lo6L-132" style="edgeStyle=orthogonalEdgeStyle;rounded=0;orthogonalLoop=1;jettySize=auto;html=1;exitX=1;exitY=0.5;exitDx=0;exitDy=0;entryX=0;entryY=0.5;entryDx=0;entryDy=0;curved=1;strokeWidth=2;" edge="1" parent="1" source="IPP-kp5qL_V_h9k9Lo6L-113" target="IPP-kp5qL_V_h9k9Lo6L-85">
          <mxGeometry relative="1" as="geometry" />
        </mxCell>
        <mxCell id="IPP-kp5qL_V_h9k9Lo6L-133" value="&lt;font style=&quot;font-size: 14px;&quot;&gt;async order streaming&lt;/font&gt;" style="edgeLabel;html=1;align=center;verticalAlign=middle;resizable=0;points=[];" vertex="1" connectable="0" parent="1">
          <mxGeometry x="4730" y="340.0000000000002" as="geometry" />
        </mxCell>
        <mxCell id="IPP-kp5qL_V_h9k9Lo6L-136" value="&lt;font style=&quot;font-size: 36px;&quot;&gt;Итоговое состояние&lt;/font&gt;" style="text;html=1;align=center;verticalAlign=middle;whiteSpace=wrap;rounded=0;" vertex="1" parent="1">
          <mxGeometry x="4264" y="120" width="366" height="30" as="geometry" />
        </mxCell>
        <mxCell id="IPP-kp5qL_V_h9k9Lo6L-138" value="instability = 0" style="text;html=1;align=center;verticalAlign=middle;whiteSpace=wrap;rounded=0;" vertex="1" parent="1">
          <mxGeometry x="5090" y="890" width="100" height="30" as="geometry" />
        </mxCell>
        <mxCell id="IPP-kp5qL_V_h9k9Lo6L-139" value="instability = 0" style="text;html=1;align=center;verticalAlign=middle;whiteSpace=wrap;rounded=0;" vertex="1" parent="1">
          <mxGeometry x="4910" y="80" width="100" height="30" as="geometry" />
        </mxCell>
        <mxCell id="IPP-kp5qL_V_h9k9Lo6L-140" value="instability = 0.2" style="text;html=1;align=center;verticalAlign=middle;whiteSpace=wrap;rounded=0;" vertex="1" parent="1">
          <mxGeometry x="4500" y="360" width="100" height="30" as="geometry" />
        </mxCell>
        <mxCell id="IPP-kp5qL_V_h9k9Lo6L-141" value="instability = 0.5" style="text;html=1;align=center;verticalAlign=middle;whiteSpace=wrap;rounded=0;" vertex="1" parent="1">
          <mxGeometry x="4190" y="990" width="100" height="30" as="geometry" />
        </mxCell>
        <mxCell id="IPP-kp5qL_V_h9k9Lo6L-142" value="instability = 0" style="text;html=1;align=center;verticalAlign=middle;whiteSpace=wrap;rounded=0;container=0;" vertex="1" parent="1">
          <mxGeometry x="3730" y="825" width="100" height="30" as="geometry" />
        </mxCell>
        <mxCell id="IPP-kp5qL_V_h9k9Lo6L-105" value="" style="rounded=1;whiteSpace=wrap;html=1;fillColor=#97D077;container=0;" vertex="1" parent="1">
          <mxGeometry x="3710" y="610" width="310" height="210" as="geometry" />
        </mxCell>
        <mxCell id="IPP-kp5qL_V_h9k9Lo6L-106" value="Скоринг работников" style="rounded=1;whiteSpace=wrap;html=1;container=0;" vertex="1" parent="1">
          <mxGeometry x="3730" y="690" width="120" height="96" as="geometry" />
        </mxCell>
        <mxCell id="IPP-kp5qL_V_h9k9Lo6L-107" value="Сервис" style="text;html=1;align=center;verticalAlign=middle;whiteSpace=wrap;rounded=0;container=0;" vertex="1" parent="1">
          <mxGeometry x="3830" y="630" width="60" height="30" as="geometry" />
        </mxCell>
        <mxCell id="IPP-kp5qL_V_h9k9Lo6L-163" style="edgeStyle=orthogonalEdgeStyle;rounded=0;orthogonalLoop=1;jettySize=auto;html=1;exitX=0.75;exitY=0;exitDx=0;exitDy=0;entryX=0.25;entryY=1;entryDx=0;entryDy=0;strokeWidth=2;curved=1;" edge="1" parent="1" source="IPP-kp5qL_V_h9k9Lo6L-143" target="IPP-kp5qL_V_h9k9Lo6L-145">
          <mxGeometry relative="1" as="geometry">
            <Array as="points">
              <mxPoint x="3970" y="650" />
              <mxPoint x="4160" y="650" />
            </Array>
          </mxGeometry>
        </mxCell>
        <mxCell id="IPP-kp5qL_V_h9k9Lo6L-164" style="edgeStyle=orthogonalEdgeStyle;rounded=0;orthogonalLoop=1;jettySize=auto;html=1;exitX=1;exitY=0.75;exitDx=0;exitDy=0;entryX=0;entryY=0.25;entryDx=0;entryDy=0;strokeWidth=2;curved=1;" edge="1" parent="1" source="IPP-kp5qL_V_h9k9Lo6L-143" target="IPP-kp5qL_V_h9k9Lo6L-94">
          <mxGeometry relative="1" as="geometry" />
        </mxCell>
        <mxCell id="IPP-kp5qL_V_h9k9Lo6L-165" style="edgeStyle=orthogonalEdgeStyle;rounded=0;orthogonalLoop=1;jettySize=auto;html=1;exitX=1;exitY=0.25;exitDx=0;exitDy=0;entryX=0;entryY=0.75;entryDx=0;entryDy=0;strokeWidth=2;curved=1;" edge="1" parent="1" source="IPP-kp5qL_V_h9k9Lo6L-143" target="IPP-kp5qL_V_h9k9Lo6L-112">
          <mxGeometry relative="1" as="geometry">
            <Array as="points">
              <mxPoint x="4200" y="714" />
              <mxPoint x="4200" y="530" />
            </Array>
          </mxGeometry>
        </mxCell>
        <mxCell id="IPP-kp5qL_V_h9k9Lo6L-167" value="async worker streaming" style="edgeLabel;html=1;align=center;verticalAlign=middle;resizable=0;points=[];" vertex="1" connectable="0" parent="IPP-kp5qL_V_h9k9Lo6L-165">
          <mxGeometry x="-0.2645" y="30" relative="1" as="geometry">
            <mxPoint x="-1" as="offset" />
          </mxGeometry>
        </mxCell>
        <mxCell id="IPP-kp5qL_V_h9k9Lo6L-166" style="edgeStyle=orthogonalEdgeStyle;rounded=0;orthogonalLoop=1;jettySize=auto;html=1;exitX=1;exitY=0.5;exitDx=0;exitDy=0;entryX=0;entryY=0.75;entryDx=0;entryDy=0;strokeWidth=2;curved=1;" edge="1" parent="1" source="IPP-kp5qL_V_h9k9Lo6L-143" target="IPP-kp5qL_V_h9k9Lo6L-149">
          <mxGeometry relative="1" as="geometry">
            <Array as="points">
              <mxPoint x="4480" y="738" />
              <mxPoint x="4480" y="650" />
              <mxPoint x="4880" y="650" />
              <mxPoint x="4880" y="485" />
            </Array>
          </mxGeometry>
        </mxCell>
        <mxCell id="IPP-kp5qL_V_h9k9Lo6L-143" value="Энтити-сервис воркеров" style="rounded=1;whiteSpace=wrap;html=1;" vertex="1" parent="1">
          <mxGeometry x="3880" y="690" width="120" height="96" as="geometry" />
        </mxCell>
        <mxCell id="IPP-kp5qL_V_h9k9Lo6L-144" value="" style="group" vertex="1" connectable="0" parent="1">
          <mxGeometry x="4120" y="170" width="160" height="140" as="geometry" />
        </mxCell>
        <mxCell id="IPP-kp5qL_V_h9k9Lo6L-145" value="" style="rounded=1;whiteSpace=wrap;html=1;fillColor=#97D077;" vertex="1" parent="IPP-kp5qL_V_h9k9Lo6L-144">
          <mxGeometry width="160" height="140" as="geometry" />
        </mxCell>
        <mxCell id="IPP-kp5qL_V_h9k9Lo6L-146" value="Матчинг" style="rounded=1;whiteSpace=wrap;html=1;" vertex="1" parent="IPP-kp5qL_V_h9k9Lo6L-144">
          <mxGeometry x="20" y="36" width="120" height="96" as="geometry" />
        </mxCell>
        <mxCell id="IPP-kp5qL_V_h9k9Lo6L-147" value="Сервис" style="text;html=1;align=center;verticalAlign=middle;whiteSpace=wrap;rounded=0;" vertex="1" parent="IPP-kp5qL_V_h9k9Lo6L-144">
          <mxGeometry x="50" width="60" height="30" as="geometry" />
        </mxCell>
        <mxCell id="IPP-kp5qL_V_h9k9Lo6L-148" value="" style="group" vertex="1" connectable="0" parent="1">
          <mxGeometry x="4960" y="380" width="160" height="140" as="geometry" />
        </mxCell>
        <mxCell id="IPP-kp5qL_V_h9k9Lo6L-149" value="" style="rounded=1;whiteSpace=wrap;html=1;fillColor=#97D077;" vertex="1" parent="IPP-kp5qL_V_h9k9Lo6L-148">
          <mxGeometry width="160" height="140" as="geometry" />
        </mxCell>
        <mxCell id="IPP-kp5qL_V_h9k9Lo6L-150" value="Начисления воркерам" style="rounded=1;whiteSpace=wrap;html=1;" vertex="1" parent="IPP-kp5qL_V_h9k9Lo6L-148">
          <mxGeometry x="20" y="36" width="120" height="96" as="geometry" />
        </mxCell>
        <mxCell id="IPP-kp5qL_V_h9k9Lo6L-151" value="Сервис" style="text;html=1;align=center;verticalAlign=middle;whiteSpace=wrap;rounded=0;" vertex="1" parent="IPP-kp5qL_V_h9k9Lo6L-148">
          <mxGeometry x="50" width="60" height="30" as="geometry" />
        </mxCell>
        <mxCell id="IPP-kp5qL_V_h9k9Lo6L-152" value="instability = 0" style="text;html=1;align=center;verticalAlign=middle;whiteSpace=wrap;rounded=0;" vertex="1" parent="1">
          <mxGeometry x="4990" y="350" width="100" height="30" as="geometry" />
        </mxCell>
        <mxCell id="IPP-kp5qL_V_h9k9Lo6L-153" style="edgeStyle=orthogonalEdgeStyle;rounded=0;orthogonalLoop=1;jettySize=auto;html=1;entryX=0;entryY=0.5;entryDx=0;entryDy=0;curved=1;strokeWidth=2;" edge="1" parent="1" source="IPP-kp5qL_V_h9k9Lo6L-113" target="IPP-kp5qL_V_h9k9Lo6L-149">
          <mxGeometry relative="1" as="geometry" />
        </mxCell>
        <mxCell id="IPP-kp5qL_V_h9k9Lo6L-157" style="edgeStyle=orthogonalEdgeStyle;rounded=0;orthogonalLoop=1;jettySize=auto;html=1;entryX=0.5;entryY=0;entryDx=0;entryDy=0;strokeWidth=2;curved=1;startArrow=classic;startFill=1;" edge="1" parent="1" source="IPP-kp5qL_V_h9k9Lo6L-146" target="IPP-kp5qL_V_h9k9Lo6L-112">
          <mxGeometry relative="1" as="geometry" />
        </mxCell>
        <mxCell id="IPP-kp5qL_V_h9k9Lo6L-158" value="&lt;font style=&quot;font-size: 14px;&quot;&gt;async&lt;/font&gt;" style="edgeLabel;html=1;align=center;verticalAlign=middle;resizable=0;points=[];" vertex="1" connectable="0" parent="IPP-kp5qL_V_h9k9Lo6L-157">
          <mxGeometry x="0.0693" y="-9" relative="1" as="geometry">
            <mxPoint y="-1" as="offset" />
          </mxGeometry>
        </mxCell>
        <mxCell id="IPP-kp5qL_V_h9k9Lo6L-159" value="instability = 0.3" style="text;html=1;align=center;verticalAlign=middle;whiteSpace=wrap;rounded=0;" vertex="1" parent="1">
          <mxGeometry x="4130" y="140" width="100" height="30" as="geometry" />
        </mxCell>
        <mxCell id="IPP-kp5qL_V_h9k9Lo6L-161" style="edgeStyle=orthogonalEdgeStyle;rounded=0;orthogonalLoop=1;jettySize=auto;html=1;exitX=1;exitY=0.25;exitDx=0;exitDy=0;entryX=0.5;entryY=0;entryDx=0;entryDy=0;curved=1;strokeWidth=2;" edge="1" parent="1" source="IPP-kp5qL_V_h9k9Lo6L-146" target="IPP-kp5qL_V_h9k9Lo6L-113">
          <mxGeometry relative="1" as="geometry" />
        </mxCell>
        <mxCell id="IPP-kp5qL_V_h9k9Lo6L-162" value="&lt;font style=&quot;font-size: 14px;&quot;&gt;async&lt;/font&gt;" style="edgeLabel;html=1;align=center;verticalAlign=middle;resizable=0;points=[];" vertex="1" connectable="0" parent="IPP-kp5qL_V_h9k9Lo6L-161">
          <mxGeometry x="-0.3665" y="-50" relative="1" as="geometry">
            <mxPoint x="-1" as="offset" />
          </mxGeometry>
        </mxCell>
        <mxCell id="IPP-kp5qL_V_h9k9Lo6L-168" value="async worker streaming" style="edgeLabel;html=1;align=center;verticalAlign=middle;resizable=0;points=[];" vertex="1" connectable="0" parent="1">
          <mxGeometry x="4100.000769230769" y="839.9999999999998" as="geometry" />
        </mxCell>
        <mxCell id="IPP-kp5qL_V_h9k9Lo6L-169" value="async worker streaming" style="edgeLabel;html=1;align=center;verticalAlign=middle;resizable=0;points=[];" vertex="1" connectable="0" parent="1">
          <mxGeometry x="4130.000769230769" y="529.9999999999998" as="geometry" />
        </mxCell>
        <mxCell id="IPP-kp5qL_V_h9k9Lo6L-170" value="async worker streaming" style="edgeLabel;html=1;align=center;verticalAlign=middle;resizable=0;points=[];" vertex="1" connectable="0" parent="1">
          <mxGeometry x="4470.000769230768" y="689.9999999999998" as="geometry" />
        </mxCell>
        <mxCell id="IPP-kp5qL_V_h9k9Lo6L-171" value="&lt;span style=&quot;color: rgb(0, 0, 0); font-family: Helvetica; font-size: 14px; font-style: normal; font-variant-ligatures: normal; font-variant-caps: normal; font-weight: 400; letter-spacing: normal; orphans: 2; text-align: center; text-indent: 0px; text-transform: none; widows: 2; word-spacing: 0px; -webkit-text-stroke-width: 0px; white-space: nowrap; background-color: rgb(255, 255, 255); text-decoration-thickness: initial; text-decoration-style: initial; text-decoration-color: initial; display: inline !important; float: none;&quot;&gt;async order streaming&lt;/span&gt;" style="text;whiteSpace=wrap;html=1;" vertex="1" parent="1">
          <mxGeometry x="4710" y="450" width="170" height="40" as="geometry" />
        </mxCell>
        <mxCell id="IPP-kp5qL_V_h9k9Lo6L-172" value="&lt;span style=&quot;color: rgb(0, 0, 0); font-family: Helvetica; font-size: 14px; font-style: normal; font-variant-ligatures: normal; font-variant-caps: normal; font-weight: 400; letter-spacing: normal; orphans: 2; text-align: center; text-indent: 0px; text-transform: none; widows: 2; word-spacing: 0px; -webkit-text-stroke-width: 0px; white-space: nowrap; background-color: rgb(255, 255, 255); text-decoration-thickness: initial; text-decoration-style: initial; text-decoration-color: initial; display: inline !important; float: none;&quot;&gt;async order streaming&lt;/span&gt;" style="text;whiteSpace=wrap;html=1;" vertex="1" parent="1">
          <mxGeometry x="4760" y="725" width="170" height="40" as="geometry" />
        </mxCell>
      </root>
    </mxGraphModel>
  </diagram>
</mxfile>
